# File created by Blade
# Date/Time:  Thu Jan 22 19:49:01 2015
# Frame Rate: 120.000 fps
#------------------------------------------------------
:FULLY-SPECIFIED
:DEGREES
2528
root -2.075627 2.921838 -9.585086 -26.750724 -12.591032 -0.840194
RightUpLeg -85.556225 31.687192 52.458459
RightLeg 114.854936 -0.000000 -0.000000
RightFoot 14.544535 -8.180590 -13.584472
RightToeBase 3.747902 -0.000000 -0.000000
LeftUpLeg -62.865209 1.950036 7.477271
LeftLeg 6.493096 -0.000000 -0.000000
LeftFoot 19.461425 2.184006 -6.607434
LeftToeBase -12.000578 -0.000000 0.000000
Spine 46.902649 -35.367275 -25.169133
RightShoulder -15.567311 -7.149865 -16.644592
RightArm 50.171617 -24.699252 54.496960
RightForeArm -20.662722 -0.000000 71.375386
RightHand 12.151327 -0.000000 -22.137167
RightHandThumb1 -24.326973 -0.000000 -32.862282
LeftShoulder 8.373437 -29.856738 29.839035
LeftArm 98.440005 54.572888 3.271264
LeftForeArm 19.377298 -0.000000 55.770074
LeftHand 0.647223 0.000000 -14.431801
LeftHandThumb1 -26.253704 0.000000 33.147579
Head -13.538017 0.079143 -5.795613
2529
root -2.083589 2.921482 -9.572611 -26.730058 -12.542477 -0.855898
RightUpLeg -85.592087 31.748139 52.414587
RightLeg 114.847801 -0.000000 -0.000000
RightFoot 14.539047 -8.177742 -13.541020
RightToeBase 3.701624 -0.000000 -0.000000
LeftUpLeg -62.868746 1.995549 7.404604
LeftLeg 6.450974 -0.000000 -0.000000
LeftFoot 19.574527 2.154680 -6.644613
LeftToeBase -11.962382 -0.000000 0.000000
Spine 46.763866 -35.222349 -25.225025
RightShoulder -15.296822 -6.366000 -17.335115
RightArm 51.192644 -23.665125 53.969058
RightForeArm -21.041622 -0.000000 71.724385
RightHand 12.166630 -0.000000 -21.940938
RightHandThumb1 -24.326973 -0.000000 -32.862282
LeftShoulder 8.553963 -30.012490 29.794025
LeftArm 98.512418 54.656755 3.312939
LeftForeArm 19.793627 0.000000 55.127155
LeftHand 0.738251 -0.000000 -14.292719
LeftHandThumb1 -26.253704 0.000000 33.147579
Head -13.284551 -1.324751 -5.499779
2530
root -2.079620 2.916711 -9.574065 -26.666315 -12.610771 -0.824370
RightUpLeg -85.504871 31.750164 52.498119
RightLeg 114.790317 -0.000000 -0.000000
RightFoot 14.491265 -8.159829 -13.756284
RightToeBase 3.601266 -0.000000 -0.000000
LeftUpLeg -62.904778 2.139311 7.371391
LeftLeg 6.396907 -0.000000 -0.000000
LeftFoot 19.700868 2.222515 -6.780683
LeftToeBase -11.850754 -0.000000 0.000000
Spine 46.577751 -35.032782 -25.235031
RightShoulder -14.932394 -5.462347 -18.128523
RightArm 52.003403 -22.576149 53.637903
RightForeArm -21.572618 -0.000000 72.019045
RightHand 12.141375 -0.000000 -21.651571
RightHandThumb1 -24.326973 -0.000000 -32.862282
LeftShoulder 8.700080 -30.266121 29.790702
LeftArm 98.135413 54.836994 2.885169
LeftForeArm 19.803047 -0.000000 54.512875
LeftHand 1.067933 -0.000000 -14.768643
LeftHandThumb1 -26.253704 0.000000 33.147579
Head -13.121146 -2.663733 -5.239052
2531
root -2.084963 2.921925 -9.561394 -26.712651 -12.595699 -0.833355
RightUpLeg -85.443136 31.758099 52.505301
RightLeg 114.785086 -0.000000 -0.000000
RightFoot 14.445993 -8.175348 -13.730493
RightToeBase 3.606437 -0.000000 -0.000000
LeftUpLeg -62.813526 2.204191 7.268238
LeftLeg 6.333753 -0.000000 -0.000000
LeftFoot 19.653608 2.487718 -7.126305
LeftToeBase -11.225372 -0.000000 0.000000
Spine 46.536128 -34.846330 -25.310287
RightShoulder -14.633206 -4.583822 -18.944656
RightArm 52.746873 -21.469809 53.339928
RightForeArm -22.210662 -0.000000 72.212924
RightHand 12.598865 -0.000000 -21.573161
RightHandThumb1 -24.326973 -0.000000 -32.862282
LeftShoulder 8.820089 -30.398342 29.723368
LeftArm 98.078323 54.887325 2.818519
LeftForeArm 20.261659 0.000000 53.825037
LeftHand 1.301276 -0.000000 -14.417378
LeftHandThumb1 -26.253704 0.000000 33.147579
Head -12.972836 -4.111278 -5.021806
2532
root -2.090114 2.921212 -9.552988 -26.680879 -12.484961 -0.803317
RightUpLeg -85.524371 31.840972 52.361607
RightLeg 114.788981 -0.000000 -0.000000
RightFoot 14.365916 -8.224642 -13.661688
RightToeBase 3.672414 -0.000000 -0.000000
LeftUpLeg -62.827409 2.194751 7.230238
LeftLeg 6.287498 -0.000000 -0.000000
LeftFoot 19.723058 2.605166 -7.407142
LeftToeBase -11.030450 -0.000000 0.000000
Spine 46.433048 -34.768823 -25.450574
RightShoulder -14.347113 -3.717178 -19.783077
RightArm 53.378629 -20.327102 53.331164
RightForeArm -23.111393 0.000000 72.362757
RightHand 12.261137 -0.000000 -21.308070
RightHandThumb1 -24.326973 -0.000000 -32.862282
LeftShoulder 8.914383 -30.555184 29.715638
LeftArm 97.873884 54.995446 2.553316
LeftForeArm 20.281238 -0.000000 53.182415
LeftHand 1.412859 -0.000000 -14.495460
LeftHandThumb1 -26.253704 0.000000 33.147579
Head -12.820285 -5.520287 -4.787474
2533
root -2.091698 2.922340 -9.545536 -26.632970 -12.413293 -0.765482
RightUpLeg -85.581388 31.904186 52.274680
RightLeg 114.791817 -0.000000 -0.000000
RightFoot 14.357243 -8.273552 -13.655864
RightToeBase 3.633332 -0.000000 -0.000000
LeftUpLeg -62.847602 2.212865 7.195948
LeftLeg 6.249777 -0.000000 -0.000000
LeftFoot 19.774298 2.748694 -7.617369
LeftToeBase -11.010026 -0.000000 0.000000
Spine 46.336863 -34.723745 -25.586835
RightShoulder -14.073274 -2.860031 -20.604088
RightArm 54.039880 -19.366147 52.499560
RightForeArm -23.543256 0.000000 72.875456
RightHand 11.412304 -0.000000 -21.813979
RightHandThumb1 -24.326973 -0.000000 -32.862282
LeftShoulder 8.968830 -30.846760 29.708384
LeftArm 97.406487 55.287102 1.955993
LeftForeArm 19.893884 0.000000 52.526404
LeftHand 1.445665 0.000000 -15.053826
LeftHandThumb1 -26.253704 0.000000 33.147579
Head -12.762055 -6.843582 -4.619343
2534
root -2.096740 2.922021 -9.540045 -26.563555 -12.352664 -0.746877
RightUpLeg -85.549091 31.915018 52.287442
RightLeg 114.771404 -0.000000 -0.000000
RightFoot 14.224885 -8.365138 -13.867324
RightToeBase 3.582758 -0.000000 -0.000000
LeftUpLeg -62.893828 2.269792 7.136299
LeftLeg 6.178653 -0.000000 -0.000000
LeftFoot 19.955181 2.969192 -7.755400
LeftToeBase -11.083689 -0.000000 0.000000
Spine 46.190519 -34.624385 -25.636808
RightShoulder -13.876922 -2.123689 -21.419389
RightArm 54.634272 -18.053506 52.524167
RightForeArm -24.349424 -0.000000 72.941005
RightHand 11.917327 -0.000000 -21.152796
RightHandThumb1 -24.326973 -0.000000 -32.862282
LeftShoulder 9.048153 -31.092575 29.677060
LeftArm 97.303348 55.472216 1.782081
LeftForeArm 20.012773 0.000000 51.838431
LeftHand 1.481459 -0.000000 -14.792128
LeftHandThumb1 -26.253704 0.000000 33.147579
Head -12.690275 -8.222495 -4.410996
2535
root -2.102055 2.923662 -9.535244 -26.567237 -12.292676 -0.679543
RightUpLeg -85.581245 31.983644 52.178171
RightLeg 114.763874 -0.000000 -0.000000
RightFoot 14.261345 -8.373797 -13.814700
RightToeBase 3.517922 -0.000000 -0.000000
LeftUpLeg -62.867689 2.345032 7.001782
LeftLeg 6.153060 -0.000000 -0.000000
LeftFoot 19.882077 3.148437 -7.512153
LeftToeBase -11.008739 -0.000000 0.000000
Spine 46.119097 -34.438074 -25.784270
RightShoulder -13.721732 -1.457826 -22.159494
RightArm 55.228872 -16.794967 52.164595
RightForeArm -25.166166 -0.000000 73.135504
RightHand 11.677680 0.000000 -21.062979
RightHandThumb1 -24.326973 -0.000000 -32.862282
LeftShoulder 9.127139 -31.237222 29.651120
LeftArm 96.963268 55.519679 1.322723
LeftForeArm 19.856336 -0.000000 51.136184
LeftHand 1.441831 -0.000000 -14.909735
LeftHandThumb1 -26.253704 0.000000 33.147579
Head -12.626725 -9.612777 -4.136126
